<svg width="21" height="21" viewBox="0 0 21 21" fill="none" xmlns="http://www.w3.org/2000/svg">
<path fill-rule="evenodd" clip-rule="evenodd" d="M9.53945 1.96082C5.14864 1.96082 1.59071 5.51592 1.59071 9.89946C1.59071 14.2831 5.14864 17.8382 9.53945 17.8382C11.7299 17.8382 13.7121 16.9542 15.1505 15.5224C16.5955 14.0841 17.4881 12.0966 17.4881 9.89946C17.4881 5.51592 13.9302 1.96082 9.53945 1.96082ZM0.0522461 9.89946C0.0522461 4.66457 4.30064 0.422363 9.53945 0.422363C14.7782 0.422363 19.0266 4.66457 19.0266 9.89946C19.0266 12.2449 18.1729 14.3921 16.7605 16.0464L19.8266 19.1089C20.1272 19.4092 20.1274 19.8962 19.8272 20.1968C19.527 20.4974 19.0399 20.4976 18.7394 20.1974L15.6704 17.132C14.0172 18.5317 11.8764 19.3766 9.53945 19.3766C4.30064 19.3766 0.0522461 15.1344 0.0522461 9.89946Z" fill="#191C1F"/>
</svg>
