<svg width="49" height="37" viewBox="0 0 49 37" fill="none" xmlns="http://www.w3.org/2000/svg">
<path d="M39.3324 9.33318C35.9234 3.70054 29.4474 0.132404 22.2157 0.947864C19.1726 1.28996 16.229 2.61856 13.7429 4.57169C14.1486 5.20417 14.3833 5.95996 14.3833 6.76747C14.3833 9.02291 12.5535 10.8527 10.298 10.8527C9.72523 10.8527 9.18026 10.7334 8.68701 10.5226C7.64879 12.428 6.9646 14.4964 6.74979 16.6087C6.41565 19.9143 7.0004 23.0568 8.27331 25.8095C8.63132 26.5851 9.45871 27.0307 10.306 26.9073L15.6244 26.1317C13.8224 24.1109 12.7166 21.4497 12.6927 18.53C12.641 12.1416 17.852 6.87487 24.2444 6.86691C29.6503 6.85896 34.193 10.5584 35.4699 15.5665L39.0937 11.6483C39.6825 11.0158 39.7779 10.0731 39.3324 9.33318Z" fill="#191C1F"/>
<path d="M13.7427 4.57161C13.0188 3.43394 11.7458 2.68213 10.2979 2.68213C8.04246 2.68213 6.21265 4.51194 6.21265 6.76739C6.21265 8.45002 7.23098 9.89796 8.68687 10.5225C9.93194 8.24317 11.6822 6.1906 13.7427 4.57161Z" fill="#EF5DA8"/>
<path d="M46.0868 4.38871C46.0868 4.38871 44.4757 3.7443 38.5606 4.98141C38.5606 4.98141 43.9427 7.01012 41.9219 11.3699C41.9219 11.3699 38.8351 17.2611 27.3232 23.1562C15.9426 29.298 8.53579 29.1509 8.53579 29.1509C3.79817 28.3473 5.18246 22.7624 5.18246 22.7624C0.806821 26.9352 0.424947 28.6258 0.424947 28.6258C-1.26166 32.0348 2.61675 32.7787 2.61675 32.7787C7.00432 33.2162 10.2622 32.1502 10.2622 32.1502C10.7912 32.0746 11.5908 31.8439 12.5693 31.5097C15.684 34.3062 19.8051 36.0127 24.3239 36.0127C34.0458 36.0127 41.9259 28.1325 41.9259 18.4107C41.9259 17.5674 41.8662 16.74 41.7509 15.9285C42.4908 15.3596 43.0755 14.8624 43.4176 14.4885C43.4176 14.4885 46.1424 12.4081 48.2706 8.54557C48.2666 8.54955 49.8498 4.93368 46.0868 4.38871Z" fill="#191C1F"/>
</svg>
